<svg xmlns="http://www.w3.org/2000/svg" xmlns:xlink="http://www.w3.org/1999/xlink" width="73.899" height="118.27" viewBox="0 0 73.899 118.27">
  <defs>
    <clipPath id="clip-path">
      <rect id="Rectangle_4244" data-name="Rectangle 4244" width="73.899" height="118.27" fill="none"/>
    </clipPath>
  </defs>
  <g id="electrical_pylone" transform="translate(-1039.604 -1088.207)">
    <g id="electrical_pylone-2" data-name="electrical_pylone" transform="translate(1039.604 1088.207)" clip-path="url(#clip-path)">
      <path id="Tracé_3117" data-name="Tracé 3117" d="M54.219,71.018C54.219,72,43.9,72.8,31.163,72.8S8.108,72,8.108,71.018,18.431,69.24,31.163,69.24c10.708,0,19.712.563,22.6,1.424.195.046.456.2.456.354" transform="translate(5.301 45.268)" fill="#ffbf00"/>
      <path id="Tracé_3118" data-name="Tracé 3118" d="M18.939,116.285a.222.222,0,0,1-.107-.028.215.215,0,0,1-.106-.21l6.987-61.291L19.682,36.37l-5.57-16.829L7.595.281A.212.212,0,0,1,7.7.021.215.215,0,0,1,7.975.1L19.53,17.757a.2.2,0,0,1,.035.111l.534,18.37L32.122,54.67a.22.22,0,0,1,.01.217l-7.344,13.65L32.1,73.7a.217.217,0,0,1,.091.177.214.214,0,0,1-.1.175l-8.547,5.717,8.515,7.994a.2.2,0,0,1,.066.157.213.213,0,0,1-.069.157L21.342,97.864l10.645,8.2a.218.218,0,0,1,0,.339l-12.919,9.837a.218.218,0,0,1-.129.045m2.243-18.008L19.206,115.6l12.3-9.365Zm2.072-18.193L21.288,97.336,31.6,87.92Zm1.28-11.2L23.332,79.4,31.6,73.873Zm-3.939-31.1,5.539,16.887a.241.241,0,0,1,.01.091L24.643,67.9,31.7,54.8ZM8.537,1.733l5.98,17.672,5.113,15.448L19.143,17.94Z" transform="translate(4.958 0.001)" fill="#00408e"/>
      <path id="Tracé_3119" data-name="Tracé 3119" d="M22.064,70.006h-7.1a.213.213,0,0,1,0-.427h6.314l-6.007-3.494a.217.217,0,0,1-.106-.182.211.211,0,0,1,.1-.184l5.9-3.6H15.841a.213.213,0,1,1,0-.427h6.078a.213.213,0,0,1,.205.155.211.211,0,0,1-.094.24L15.791,65.9l6.38,3.713a.213.213,0,0,1-.107.4" transform="translate(9.641 40.335)" fill="#00408e"/>
      <path id="Tracé_3120" data-name="Tracé 3120" d="M27.01,64.536H15.21a.213.213,0,1,1,0-.427h11.8a.213.213,0,1,1,0,.427" transform="translate(9.805 41.914)" fill="#00408e"/>
      <path id="Tracé_3121" data-name="Tracé 3121" d="M21.921,59.083H16.136a.213.213,0,1,1,0-.427h5.158L16.6,55.043a.213.213,0,0,1,0-.341l4.932-3.609H17.147a.213.213,0,1,1,0-.425h5.044a.213.213,0,0,1,.126.385L17.087,54.88,22.052,58.7a.213.213,0,0,1-.131.382" transform="translate(10.41 33.127)" fill="#00408e"/>
      <path id="Tracé_3122" data-name="Tracé 3122" d="M26.2,53.51H16.5a.213.213,0,1,1,0-.427h9.7a.213.213,0,1,1,0,.427" transform="translate(10.645 34.705)" fill="#00408e"/>
      <path id="Tracé_3123" data-name="Tracé 3123" d="M22.087,48.357H17.234a.213.213,0,1,1,0-.427h3.979l-3.766-1.958a.215.215,0,0,1-.116-.189.212.212,0,0,1,.112-.189l3.964-2.14H17.8a.213.213,0,1,1,0-.427h4.449a.214.214,0,0,1,.1.4L18,45.779l4.182,2.176a.213.213,0,0,1-.1.4" transform="translate(11.128 28.132)" fill="#00408e"/>
      <path id="Tracé_3124" data-name="Tracé 3124" d="M25.6,44.992H17.422a.213.213,0,1,1,0-.427H25.6a.213.213,0,1,1,0,.427" transform="translate(11.251 29.136)" fill="#00408e"/>
      <path id="Tracé_3125" data-name="Tracé 3125" d="M23.06,44.684h-3.3a.213.213,0,1,1,0-.427h2.972L20.252,38.4a.194.194,0,0,1,0-.149l1.9-5.788-3.676-.025a.212.212,0,0,1-.212-.2l-.5-6.7H16.183a.213.213,0,0,1,0-.427h1.763a.216.216,0,0,1,.215.2l.5,6.7,3.772.025a.215.215,0,0,1,.172.089.211.211,0,0,1,.03.19l-1.961,5.99,2.578,6.081a.215.215,0,0,1-.2.3" transform="translate(10.441 16.418)" fill="#00408e"/>
      <path id="Tracé_3126" data-name="Tracé 3126" d="M15.353,25.2a.213.213,0,0,1-.051-.42l1.46-.365-3.4-4.779a.211.211,0,0,1,.1-.321l3.028-1.189-4.882-3.878a.213.213,0,0,1-.064-.25l2.37-5.62a.213.213,0,1,1,.394.165L12,14.016l5.046,4.009a.211.211,0,0,1,.078.2.215.215,0,0,1-.132.167L13.87,19.614l3.422,4.809a.213.213,0,0,1,.026.2.211.211,0,0,1-.149.132L15.4,25.2a.182.182,0,0,1-.051.007" transform="translate(7.535 5.393)" fill="#00408e"/>
      <path id="Tracé_3127" data-name="Tracé 3127" d="M1.484,20.934a.214.214,0,0,1-.213-.213V19.373a.213.213,0,0,1,.213-.213H6l5.543-4.852a.218.218,0,0,1,.192-.046.209.209,0,0,1,.147.131l.956,2.458L16.955,11.7,18.087,6.1a.213.213,0,1,1,.418.084l-1.143,5.656a.2.2,0,0,1-.041.091L12.937,17.4a.215.215,0,0,1-.367-.055l-.977-2.519-5.376,4.7a.215.215,0,0,1-.141.053H1.7V20.72a.214.214,0,0,1-.213.213" transform="translate(0.831 3.875)" fill="#00408e"/>
      <path id="Tracé_3128" data-name="Tracé 3128" d="M12.632,7.477H9.752a.213.213,0,0,1-.21-.253l.648-3.476a.214.214,0,0,1,.42.079l-.6,3.223h2.623a.213.213,0,0,1,0,.427" transform="translate(6.236 2.337)" fill="#00408e"/>
      <path id="Tracé_3129" data-name="Tracé 3129" d="M10.518,4.675H8.857a.212.212,0,0,1-.213-.212v-2.7a.213.213,0,1,1,.427,0V4.25h1.447a.213.213,0,1,1,0,.425" transform="translate(5.651 1.013)" fill="#00408e"/>
      <path id="Tracé_3130" data-name="Tracé 3130" d="M24.763,33.426H18.778a.213.213,0,1,1,0-.427h5.985a.213.213,0,1,1,0,.427" transform="translate(12.137 21.575)" fill="#00408e"/>
      <path id="Tracé_3131" data-name="Tracé 3131" d="M4.563,14.978a.213.213,0,0,1-.193-.124l-.8-1.738a.213.213,0,1,1,.387-.179l.8,1.738a.214.214,0,0,1-.193.3" transform="translate(2.318 8.377)" fill="#00408e"/>
      <path id="Tracé_3132" data-name="Tracé 3132" d="M.212,20.437a.214.214,0,0,1-.2-.15A.211.211,0,0,1,.1,20.045L2.2,18.67l19.348-9.4a.212.212,0,0,1,.064-.021l3.1-.509a.2.2,0,0,1,.068-.012h0l6.076-1a.213.213,0,0,1,.074-.013l5.98-.982a.215.215,0,0,1,.175.048.221.221,0,0,1,.074.164l-.028,2.595v.012a.225.225,0,0,1-.051.127.3.3,0,0,1-.041.036.27.27,0,0,1-.063.028L2.378,20.4a.187.187,0,0,1-.06.01l-2.1.026ZM21.611,9.71l-19.2,9.331L.941,20l1.341-.018L25.288,12.9Zm3.465-.443.8,3.45,4.811-1.483Zm-2.949.326,3.233,2.8-.741-3.21Zm9.041-1.381.245,2.8,4.74-1.46Zm-5.524.8,5.328,1.869-.235-2.707Zm6.3-1.037,4.763,1.278.021-2.066Z" transform="translate(0 4.399)" fill="#00408e"/>
      <path id="Tracé_3133" data-name="Tracé 3133" d="M8.733.427H6.363a.213.213,0,0,1,0-.427h2.37a.213.213,0,0,1,0,.427" transform="translate(4.021 0.001)" fill="#00408e"/>
      <path id="Tracé_3134" data-name="Tracé 3134" d="M35.474,116.285a.216.216,0,0,1-.129-.043L22.425,106.4a.211.211,0,0,1-.084-.169.22.22,0,0,1,.083-.17l10.644-8.2L22.351,88.08a.219.219,0,0,1-.069-.155.215.215,0,0,1,.068-.157l8.515-7.994-8.547-5.719a.211.211,0,0,1,0-.351l7.313-5.166L22.282,54.889a.215.215,0,0,1,.01-.218L34.314,36.239l.531-18.372a.219.219,0,0,1,.035-.111L46.437.1a.213.213,0,0,1,.38.185L40.3,19.543l-5.57,16.829L28.7,54.758l6.987,61.289a.211.211,0,0,1-.106.21.2.2,0,0,1-.106.028M22.905,106.234l12.3,9.365-1.975-17.32Zm-.1-18.312,10.315,9.417L31.156,80.084Zm0-14.049L31.078,79.4l-1.2-10.52ZM22.718,54.8l7.048,13.1-1.5-13.139a.215.215,0,0,1,.01-.091l5.538-16.887ZM35.27,17.94l-.49,16.913,5.113-15.446L45.876,1.733Z" transform="translate(14.528 0.001)" fill="#00408e"/>
      <path id="Tracé_3135" data-name="Tracé 3135" d="M32.7,70.006H25.6a.213.213,0,0,1-.107-.4l6.38-3.713-6.238-3.807a.211.211,0,0,1-.094-.24.213.213,0,0,1,.205-.155H31.82a.213.213,0,1,1,0,.427H26.5l5.9,3.6a.207.207,0,0,1,.1.184.213.213,0,0,1-.106.182l-6.007,3.494H32.7a.213.213,0,0,1,0,.427" transform="translate(16.596 40.335)" fill="#00408e"/>
      <path id="Tracé_3136" data-name="Tracé 3136" d="M34.308,64.536h-11.8a.213.213,0,1,1,0-.427h11.8a.213.213,0,0,1,0,.427" transform="translate(14.576 41.914)" fill="#00408e"/>
      <path id="Tracé_3137" data-name="Tracé 3137" d="M31.111,59.083H25.325A.213.213,0,0,1,25.2,58.7l4.963-3.822-5.229-3.825a.213.213,0,0,1,.126-.385H30.1a.213.213,0,1,1,0,.425H25.708L30.64,54.7a.213.213,0,0,1,0,.341l-4.693,3.614h5.16a.213.213,0,1,1,0,.427" transform="translate(16.241 33.127)" fill="#00408e"/>
      <path id="Tracé_3138" data-name="Tracé 3138" d="M32.192,53.51h-9.7a.213.213,0,1,1,0-.427h9.7a.213.213,0,1,1,0,.427" transform="translate(14.564 34.705)" fill="#00408e"/>
      <path id="Tracé_3139" data-name="Tracé 3139" d="M29.6,48.357H24.75a.213.213,0,0,1-.1-.4l4.182-2.176-4.353-2.348a.214.214,0,0,1-.106-.24.217.217,0,0,1,.208-.162h4.447a.213.213,0,1,1,0,.427h-3.6l3.964,2.14a.213.213,0,0,1,0,.377l-3.766,1.958H29.6a.213.213,0,1,1,0,.427" transform="translate(15.933 28.132)" fill="#00408e"/>
      <path id="Tracé_3140" data-name="Tracé 3140" d="M30.661,44.992H22.488a.213.213,0,1,1,0-.427h8.173a.213.213,0,1,1,0,.427" transform="translate(14.563 29.136)" fill="#00408e"/>
      <path id="Tracé_3141" data-name="Tracé 3141" d="M27.807,44.684H24.513a.214.214,0,0,1-.179-.1.21.21,0,0,1-.018-.2l2.58-6.081-1.963-5.99a.211.211,0,0,1,.03-.19.215.215,0,0,1,.172-.089l3.772-.025.5-6.7a.213.213,0,0,1,.212-.2h1.765a.213.213,0,0,1,0,.427H29.821l-.5,6.7a.211.211,0,0,1-.21.2l-3.678.025,1.9,5.788a.21.21,0,0,1-.007.149l-2.486,5.858h2.973a.213.213,0,1,1,0,.427" transform="translate(15.886 16.418)" fill="#00408e"/>
      <path id="Tracé_3142" data-name="Tracé 3142" d="M31.627,25.2a.182.182,0,0,1-.051-.007l-1.765-.442a.213.213,0,0,1-.122-.331l3.422-4.809L29.993,18.39a.217.217,0,0,1-.134-.167.208.208,0,0,1,.079-.2l5.044-4.009L32.675,8.545a.213.213,0,1,1,.394-.165L35.439,14a.213.213,0,0,1-.064.25l-4.882,3.878,3.028,1.189a.211.211,0,0,1,.1.321l-3.4,4.779,1.46.365a.213.213,0,0,1-.051.42" transform="translate(19.384 5.393)" fill="#00408e"/>
      <path id="Tracé_3143" data-name="Tracé 3143" d="M50.015,20.934a.214.214,0,0,1-.213-.213V19.586H45.423a.221.221,0,0,1-.141-.053l-5.373-4.7-.981,2.519a.21.21,0,0,1-.165.132.215.215,0,0,1-.2-.078l-4.384-5.474a.2.2,0,0,1-.041-.091L32.995,6.182a.213.213,0,0,1,.418-.084L34.544,11.7l4.121,5.145.956-2.458a.212.212,0,0,1,.147-.131.218.218,0,0,1,.192.046L45.5,19.159h4.512a.213.213,0,0,1,.213.213V20.72a.214.214,0,0,1-.213.213" transform="translate(21.568 3.875)" fill="#00408e"/>
      <path id="Tracé_3144" data-name="Tracé 3144" d="M36.241,7.477H33.362a.213.213,0,1,1,0-.427h2.621l-.6-3.223a.213.213,0,1,1,.418-.079l.65,3.476A.215.215,0,0,1,36.4,7.4a.213.213,0,0,1-.164.078" transform="translate(21.671 2.337)" fill="#00408e"/>
      <path id="Tracé_3145" data-name="Tracé 3145" d="M36.653,4.675h-1.66a.213.213,0,1,1,0-.425h1.447V1.766a.213.213,0,1,1,.427,0v2.7a.212.212,0,0,1-.213.212" transform="translate(22.738 1.013)" fill="#00408e"/>
      <path id="Tracé_3146" data-name="Tracé 3146" d="M28.441,33.426H22.456a.213.213,0,1,1,0-.427h5.985a.213.213,0,1,1,0,.427" transform="translate(14.542 21.575)" fill="#00408e"/>
      <path id="Tracé_3147" data-name="Tracé 3147" d="M40.608,14.978a.214.214,0,0,1-.193-.3l.8-1.738a.213.213,0,1,1,.387.179l-.8,1.738a.213.213,0,0,1-.193.124" transform="translate(26.409 8.377)" fill="#00408e"/>
      <path id="Tracé_3148" data-name="Tracé 3148" d="M59.162,20.437h0l-2.1-.026A.18.18,0,0,1,57,20.4L22.395,9.74a.2.2,0,0,1-.064-.031.216.216,0,0,1-.036-.031.213.213,0,0,1-.055-.141l-.026-2.595a.215.215,0,0,1,.074-.164.22.22,0,0,1,.174-.05l5.98.984a.2.2,0,0,1,.076.013l6.076,1a.29.29,0,0,1,.069.012l3.1.509a.247.247,0,0,1,.064.021l19.323,9.388,2.125,1.389a.212.212,0,0,1,.088.24.214.214,0,0,1-.205.152m-2.067-.453L58.432,20l-1.488-.974L37.767,9.711,34.089,12.9Zm-28.4-8.75L33.5,12.715l.8-3.448Zm6.063-2.051-.743,3.212,3.235-2.8Zm-11.533.365,4.74,1.46.243-2.8Zm5.414-1.371L28.4,10.885l5.328-1.87Zm-5.995-.986.02,2.066,4.765-1.278Z" transform="translate(14.522 4.398)" fill="#00408e"/>
      <path id="Tracé_3149" data-name="Tracé 3149" d="M39.427.427h-2.37a.213.213,0,0,1,0-.427h2.37a.213.213,0,1,1,0,.427" transform="translate(24.088 0.001)" fill="#00408e"/>
      <rect id="Rectangle_4239" data-name="Rectangle 4239" width="0.293" height="14.753" transform="translate(71.554 24.939)" fill="#48aae3"/>
      <path id="Tracé_3150" data-name="Tracé 3150" d="M44.815,16.254H42.961a.348.348,0,0,1,0-.7h1.854a.348.348,0,0,1,0,.7" transform="translate(27.86 10.172)" fill="#ffbf00"/>
      <path id="Tracé_3151" data-name="Tracé 3151" d="M44.815,16.811H42.961a.348.348,0,0,1,0-.7h1.854a.348.348,0,0,1,0,.7" transform="translate(27.86 10.536)" fill="#ffbf00"/>
      <path id="Tracé_3152" data-name="Tracé 3152" d="M44.815,17.367H42.961a.348.348,0,0,1,0-.7h1.854a.348.348,0,0,1,0,.7" transform="translate(27.86 10.9)" fill="#ffbf00"/>
      <path id="Tracé_3153" data-name="Tracé 3153" d="M44.815,17.923H42.961a.348.348,0,0,1,0-.7h1.854a.348.348,0,0,1,0,.7" transform="translate(27.86 11.263)" fill="#ffbf00"/>
      <path id="Tracé_3154" data-name="Tracé 3154" d="M44.815,18.479H42.961a.348.348,0,0,1,0-.7h1.854a.348.348,0,0,1,0,.7" transform="translate(27.86 11.627)" fill="#ffbf00"/>
      <path id="Tracé_3155" data-name="Tracé 3155" d="M44.815,19.035H42.961a.348.348,0,0,1,0-.7h1.854a.348.348,0,0,1,0,.7" transform="translate(27.86 11.99)" fill="#ffbf00"/>
      <path id="Tracé_3156" data-name="Tracé 3156" d="M44.815,19.591H42.961a.348.348,0,0,1,0-.7h1.854a.348.348,0,0,1,0,.7" transform="translate(27.86 12.354)" fill="#ffbf00"/>
      <path id="Tracé_3157" data-name="Tracé 3157" d="M44.815,20.147H42.961a.348.348,0,0,1,0-.7h1.854a.348.348,0,0,1,0,.7" transform="translate(27.86 12.717)" fill="#ffbf00"/>
      <path id="Tracé_3158" data-name="Tracé 3158" d="M44.815,20.7H42.961a.348.348,0,0,1,0-.7h1.854a.348.348,0,0,1,0,.7" transform="translate(27.86 13.081)" fill="#ffbf00"/>
      <path id="Tracé_3159" data-name="Tracé 3159" d="M44.815,21.259H42.961a.348.348,0,0,1,0-.7h1.854a.348.348,0,0,1,0,.7" transform="translate(27.86 13.444)" fill="#ffbf00"/>
      <path id="Tracé_3160" data-name="Tracé 3160" d="M44.815,21.815H42.961a.348.348,0,0,1,0-.7h1.854a.348.348,0,0,1,0,.7" transform="translate(27.86 13.808)" fill="#ffbf00"/>
      <path id="Tracé_3161" data-name="Tracé 3161" d="M44.815,22.371H42.961a.348.348,0,0,1,0-.7h1.854a.348.348,0,0,1,0,.7" transform="translate(27.86 14.171)" fill="#ffbf00"/>
      <path id="Tracé_3162" data-name="Tracé 3162" d="M43.61,23.613a.642.642,0,1,0,.642.642.641.641,0,0,0-.642-.642" transform="translate(28.092 15.438)" fill="#dff1f4"/>
      <path id="Tracé_3163" data-name="Tracé 3163" d="M43.691,25.185a.848.848,0,1,1,.848-.848.85.85,0,0,1-.848.848m0-1.283a.435.435,0,1,0,.435.435.435.435,0,0,0-.435-.435" transform="translate(28.01 15.357)" fill="#48aae3"/>
      <rect id="Rectangle_4240" data-name="Rectangle 4240" width="0.337" height="17.044" transform="translate(1.993 24.785)" fill="#48aae3"/>
      <path id="Tracé_3164" data-name="Tracé 3164" d="M2.993,16.343H.851a.4.4,0,1,1,0-.8H2.993a.4.4,0,1,1,0,.8" transform="translate(0.294 10.16)" fill="#ffbf00"/>
      <path id="Tracé_3165" data-name="Tracé 3165" d="M2.993,16.986H.851a.4.4,0,0,1,0-.8H2.993a.4.4,0,0,1,0,.8" transform="translate(0.294 10.58)" fill="#ffbf00"/>
      <path id="Tracé_3166" data-name="Tracé 3166" d="M2.993,17.629H.851a.4.4,0,0,1,0-.8H2.993a.4.4,0,0,1,0,.8" transform="translate(0.294 11)" fill="#ffbf00"/>
      <path id="Tracé_3167" data-name="Tracé 3167" d="M2.993,18.271H.851a.4.4,0,1,1,0-.8H2.993a.4.4,0,1,1,0,.8" transform="translate(0.294 11.42)" fill="#ffbf00"/>
      <path id="Tracé_3168" data-name="Tracé 3168" d="M2.993,18.914H.851a.4.4,0,0,1,0-.8H2.993a.4.4,0,0,1,0,.8" transform="translate(0.294 11.841)" fill="#ffbf00"/>
      <path id="Tracé_3169" data-name="Tracé 3169" d="M2.993,19.555H.851a.4.4,0,0,1,0-.8H2.993a.4.4,0,0,1,0,.8" transform="translate(0.294 12.26)" fill="#ffbf00"/>
      <path id="Tracé_3170" data-name="Tracé 3170" d="M2.993,20.2H.851a.4.4,0,0,1,0-.8H2.993a.4.4,0,0,1,0,.8" transform="translate(0.294 12.68)" fill="#ffbf00"/>
      <path id="Tracé_3171" data-name="Tracé 3171" d="M2.993,20.84H.851a.4.4,0,0,1,0-.8H2.993a.4.4,0,0,1,0,.8" transform="translate(0.294 13.1)" fill="#ffbf00"/>
      <path id="Tracé_3172" data-name="Tracé 3172" d="M2.993,21.483H.851a.4.4,0,0,1,0-.8H2.993a.4.4,0,0,1,0,.8" transform="translate(0.294 13.52)" fill="#ffbf00"/>
      <path id="Tracé_3173" data-name="Tracé 3173" d="M2.993,22.125H.851a.4.4,0,0,1,0-.8H2.993a.4.4,0,0,1,0,.8" transform="translate(0.294 13.94)" fill="#ffbf00"/>
      <path id="Tracé_3174" data-name="Tracé 3174" d="M2.993,22.768H.851a.4.4,0,1,1,0-.8H2.993a.4.4,0,1,1,0,.8" transform="translate(0.294 14.36)" fill="#ffbf00"/>
      <path id="Tracé_3175" data-name="Tracé 3175" d="M2.993,23.41H.851a.4.4,0,1,1,0-.8H2.993a.4.4,0,1,1,0,.8" transform="translate(0.294 14.78)" fill="#ffbf00"/>
      <path id="Tracé_3176" data-name="Tracé 3176" d="M1.6,24.845a.742.742,0,1,0,.741.741.741.741,0,0,0-.741-.741" transform="translate(0.562 16.244)" fill="#dff1f4"/>
      <path id="Tracé_3177" data-name="Tracé 3177" d="M1.681,26.615a.948.948,0,1,1,.948-.948.948.948,0,0,1-.948.948m0-1.482a.534.534,0,1,0,.534.534.534.534,0,0,0-.534-.534" transform="translate(0.479 16.162)" fill="#48aae3"/>
      <rect id="Rectangle_4241" data-name="Rectangle 4241" width="0.337" height="17.044" transform="translate(36.77 14.323)" fill="#48aae3"/>
      <path id="Tracé_3178" data-name="Tracé 3178" d="M24.022,10.017H21.88a.4.4,0,0,1,0-.8h2.142a.4.4,0,0,1,0,.8" transform="translate(14.042 6.024)" fill="#ffbf00"/>
      <path id="Tracé_3179" data-name="Tracé 3179" d="M24.022,10.66H21.88a.4.4,0,0,1,0-.8h2.142a.4.4,0,0,1,0,.8" transform="translate(14.042 6.444)" fill="#ffbf00"/>
      <path id="Tracé_3180" data-name="Tracé 3180" d="M24.022,11.3H21.88a.4.4,0,0,1,0-.8h2.142a.4.4,0,0,1,0,.8" transform="translate(14.042 6.864)" fill="#ffbf00"/>
      <path id="Tracé_3181" data-name="Tracé 3181" d="M24.022,11.944H21.88a.4.4,0,0,1,0-.8h2.142a.4.4,0,0,1,0,.8" transform="translate(14.042 7.284)" fill="#ffbf00"/>
      <path id="Tracé_3182" data-name="Tracé 3182" d="M24.022,12.587H21.88a.4.4,0,0,1,0-.8h2.142a.4.4,0,0,1,0,.8" transform="translate(14.042 7.704)" fill="#ffbf00"/>
      <path id="Tracé_3183" data-name="Tracé 3183" d="M24.022,13.229H21.88a.4.4,0,0,1,0-.8h2.142a.4.4,0,0,1,0,.8" transform="translate(14.042 8.124)" fill="#ffbf00"/>
      <path id="Tracé_3184" data-name="Tracé 3184" d="M24.022,13.872H21.88a.4.4,0,0,1,0-.8h2.142a.4.4,0,0,1,0,.8" transform="translate(14.042 8.544)" fill="#ffbf00"/>
      <path id="Tracé_3185" data-name="Tracé 3185" d="M24.022,14.514H21.88a.4.4,0,0,1,0-.8h2.142a.4.4,0,0,1,0,.8" transform="translate(14.042 8.964)" fill="#ffbf00"/>
      <path id="Tracé_3186" data-name="Tracé 3186" d="M24.022,15.157H21.88a.4.4,0,0,1,0-.8h2.142a.4.4,0,0,1,0,.8" transform="translate(14.042 9.384)" fill="#ffbf00"/>
      <path id="Tracé_3187" data-name="Tracé 3187" d="M24.022,15.8H21.88a.4.4,0,0,1,0-.8h2.142a.4.4,0,0,1,0,.8" transform="translate(14.042 9.803)" fill="#ffbf00"/>
      <path id="Tracé_3188" data-name="Tracé 3188" d="M24.022,16.441H21.88a.4.4,0,1,1,0-.8h2.142a.4.4,0,0,1,0,.8" transform="translate(14.042 10.224)" fill="#ffbf00"/>
      <path id="Tracé_3189" data-name="Tracé 3189" d="M24.022,17.083H21.88a.4.4,0,0,1,0-.8h2.142a.4.4,0,0,1,0,.8" transform="translate(14.042 10.644)" fill="#ffbf00"/>
      <path id="Tracé_3190" data-name="Tracé 3190" d="M22.629,18.518a.742.742,0,1,0,.741.741.741.741,0,0,0-.741-.741" transform="translate(14.31 12.107)" fill="#dff1f4"/>
      <path id="Tracé_3191" data-name="Tracé 3191" d="M22.71,20.289a.948.948,0,1,1,.948-.949.949.949,0,0,1-.948.949m0-1.482a.534.534,0,1,0,.534.533.534.534,0,0,0-.534-.533" transform="translate(14.228 12.026)" fill="#48aae3"/>
      <rect id="Rectangle_4242" data-name="Rectangle 4242" width="0.22" height="11.057" transform="translate(63.436 0.623)" fill="#48aae3"/>
      <path id="Tracé_3192" data-name="Tracé 3192" d="M39.519,1.256H38.13a.26.26,0,1,1,0-.521h1.389a.26.26,0,1,1,0,.521" transform="translate(24.758 0.481)" fill="#ffbf00"/>
      <path id="Tracé_3193" data-name="Tracé 3193" d="M39.519,1.673H38.13a.26.26,0,1,1,0-.521h1.389a.26.26,0,1,1,0,.521" transform="translate(24.758 0.754)" fill="#ffbf00"/>
      <path id="Tracé_3194" data-name="Tracé 3194" d="M39.519,2.09H38.13a.26.26,0,1,1,0-.521h1.389a.26.26,0,1,1,0,.521" transform="translate(24.758 1.026)" fill="#ffbf00"/>
      <path id="Tracé_3195" data-name="Tracé 3195" d="M39.519,2.507H38.13a.26.26,0,1,1,0-.521h1.389a.26.26,0,1,1,0,.521" transform="translate(24.758 1.299)" fill="#ffbf00"/>
      <path id="Tracé_3196" data-name="Tracé 3196" d="M39.519,2.924H38.13a.26.26,0,1,1,0-.521h1.389a.26.26,0,1,1,0,.521" transform="translate(24.758 1.572)" fill="#ffbf00"/>
      <path id="Tracé_3197" data-name="Tracé 3197" d="M39.519,3.34H38.13a.26.26,0,1,1,0-.521h1.389a.26.26,0,1,1,0,.521" transform="translate(24.758 1.844)" fill="#ffbf00"/>
      <path id="Tracé_3198" data-name="Tracé 3198" d="M39.519,3.757H38.13a.26.26,0,1,1,0-.521h1.389a.26.26,0,1,1,0,.521" transform="translate(24.758 2.116)" fill="#ffbf00"/>
      <path id="Tracé_3199" data-name="Tracé 3199" d="M39.519,4.174H38.13a.26.26,0,1,1,0-.521h1.389a.26.26,0,1,1,0,.521" transform="translate(24.758 2.389)" fill="#ffbf00"/>
      <path id="Tracé_3200" data-name="Tracé 3200" d="M39.519,4.591H38.13a.26.26,0,1,1,0-.521h1.389a.26.26,0,1,1,0,.521" transform="translate(24.758 2.662)" fill="#ffbf00"/>
      <path id="Tracé_3201" data-name="Tracé 3201" d="M39.519,5.007H38.13a.26.26,0,1,1,0-.521h1.389a.26.26,0,1,1,0,.521" transform="translate(24.758 2.934)" fill="#ffbf00"/>
      <path id="Tracé_3202" data-name="Tracé 3202" d="M39.519,5.424H38.13a.26.26,0,1,1,0-.521h1.389a.26.26,0,1,1,0,.521" transform="translate(24.758 3.206)" fill="#ffbf00"/>
      <path id="Tracé_3203" data-name="Tracé 3203" d="M39.519,5.841H38.13a.26.26,0,1,1,0-.521h1.389a.26.26,0,1,1,0,.521" transform="translate(24.758 3.479)" fill="#ffbf00"/>
      <path id="Tracé_3204" data-name="Tracé 3204" d="M38.615,6.772a.481.481,0,1,0,.481.481.482.482,0,0,0-.481-.481" transform="translate(24.931 4.428)" fill="#dff1f4"/>
      <path id="Tracé_3205" data-name="Tracé 3205" d="M38.7,8.021a.687.687,0,1,1,.686-.688.689.689,0,0,1-.686.688m0-.961a.274.274,0,1,0,.273.273A.274.274,0,0,0,38.7,7.06" transform="translate(24.849 4.346)" fill="#48aae3"/>
      <rect id="Rectangle_4243" data-name="Rectangle 4243" width="0.22" height="11.057" transform="translate(10.22 0.655)" fill="#48aae3"/>
      <path id="Tracé_3206" data-name="Tracé 3206" d="M7.34,1.275H5.951a.26.26,0,1,1,0-.521H7.34a.26.26,0,1,1,0,.521" transform="translate(3.72 0.494)" fill="#ffbf00"/>
      <path id="Tracé_3207" data-name="Tracé 3207" d="M7.34,1.692H5.951a.26.26,0,1,1,0-.521H7.34a.26.26,0,1,1,0,.521" transform="translate(3.72 0.766)" fill="#ffbf00"/>
      <path id="Tracé_3208" data-name="Tracé 3208" d="M7.34,2.109H5.951a.26.26,0,1,1,0-.521H7.34a.26.26,0,1,1,0,.521" transform="translate(3.72 1.039)" fill="#ffbf00"/>
      <path id="Tracé_3209" data-name="Tracé 3209" d="M7.34,2.525H5.951a.26.26,0,1,1,0-.521H7.34a.26.26,0,1,1,0,.521" transform="translate(3.72 1.311)" fill="#ffbf00"/>
      <path id="Tracé_3210" data-name="Tracé 3210" d="M7.34,2.942H5.951a.26.26,0,1,1,0-.521H7.34a.26.26,0,1,1,0,.521" transform="translate(3.72 1.583)" fill="#ffbf00"/>
      <path id="Tracé_3211" data-name="Tracé 3211" d="M7.34,3.359H5.951a.26.26,0,1,1,0-.521H7.34a.26.26,0,1,1,0,.521" transform="translate(3.72 1.856)" fill="#ffbf00"/>
      <path id="Tracé_3212" data-name="Tracé 3212" d="M7.34,3.776H5.951a.26.26,0,1,1,0-.521H7.34a.26.26,0,1,1,0,.521" transform="translate(3.72 2.129)" fill="#ffbf00"/>
      <path id="Tracé_3213" data-name="Tracé 3213" d="M7.34,4.192H5.951a.26.26,0,1,1,0-.521H7.34a.26.26,0,1,1,0,.521" transform="translate(3.72 2.401)" fill="#ffbf00"/>
      <path id="Tracé_3214" data-name="Tracé 3214" d="M7.34,4.609H5.951a.26.26,0,1,1,0-.521H7.34a.26.26,0,1,1,0,.521" transform="translate(3.72 2.673)" fill="#ffbf00"/>
      <path id="Tracé_3215" data-name="Tracé 3215" d="M7.34,5.026H5.951a.26.26,0,1,1,0-.521H7.34a.26.26,0,1,1,0,.521" transform="translate(3.72 2.946)" fill="#ffbf00"/>
      <path id="Tracé_3216" data-name="Tracé 3216" d="M7.34,5.443H5.951a.26.26,0,1,1,0-.521H7.34a.26.26,0,1,1,0,.521" transform="translate(3.72 3.219)" fill="#ffbf00"/>
      <path id="Tracé_3217" data-name="Tracé 3217" d="M7.34,5.859H5.951a.26.26,0,1,1,0-.521H7.34a.26.26,0,1,1,0,.521" transform="translate(3.72 3.491)" fill="#ffbf00"/>
      <path id="Tracé_3218" data-name="Tracé 3218" d="M6.438,6.791a.481.481,0,1,0,.48.481.482.482,0,0,0-.48-.481" transform="translate(3.893 4.44)" fill="#dff1f4"/>
      <path id="Tracé_3219" data-name="Tracé 3219" d="M6.52,8.04a.687.687,0,1,1,.686-.688.689.689,0,0,1-.686.688m0-.961a.274.274,0,1,0,.273.273.275.275,0,0,0-.273-.273" transform="translate(3.812 4.359)" fill="#48aae3"/>
    </g>
  </g>
</svg>
