<svg xmlns="http://www.w3.org/2000/svg" width="40.987" height="20.945" viewBox="0 0 40.987 20.945">
  <g id="switch_open" transform="translate(-1130.094 -988.394)">
    <path id="switch-open_1_" data-name="switch-open (1)" d="M49.774,32.3a1.7,1.7,0,0,0-2.321-.624L26.648,43.69a4.6,4.6,0,1,0,1.54,3.434,3.693,3.693,0,0,0-.02-.387L49.156,34.624A1.7,1.7,0,0,0,49.774,32.3ZM23.594,48.324a1.2,1.2,0,1,1,1.2-1.2A1.2,1.2,0,0,1,23.594,48.324Zm31.8,4.072A4.594,4.594,0,1,1,59.987,47.8,4.6,4.6,0,0,1,55.393,52.4Zm0-5.8a1.2,1.2,0,1,0,1.2,1.2A1.2,1.2,0,0,0,55.393,46.6Z" transform="translate(1111.094 956.942)"/>
  </g>
</svg>
