<svg xmlns="http://www.w3.org/2000/svg" width="41.794" height="9.914" viewBox="0 0 41.794 9.914">
  <g id="switch_close" transform="translate(-1129.286 -1015.274)">
    <path id="Union_64" data-name="Union 64" d="M6611.456,474.826l-24.026,0a3.729,3.729,0,0,1-.176.346,4.6,4.6,0,1,1,.384-3.745l24.022,0c.057,0,.114,0,.169.009a4.592,4.592,0,1,1-.374,3.394Zm3.225-1.233a1.2,1.2,0,1,0,1.2-1.2A1.2,1.2,0,0,0,6614.681,473.593Zm-32.446-1.324a1.2,1.2,0,1,0,1.041-.6A1.2,1.2,0,0,0,6582.235,472.269Z" transform="translate(-5449.396 547)"/>
  </g>
</svg>
