<svg xmlns="http://www.w3.org/2000/svg" xmlns:xlink="http://www.w3.org/1999/xlink" width="82.921" height="84.684" viewBox="0 0 82.921 84.684">
  <defs>
    <clipPath id="clip-path">
      <rect id="Rectangle_4176" data-name="Rectangle 4176" width="82.921" height="84.682" fill="none"/>
    </clipPath>
  </defs>
  <g id="building" transform="translate(-1082.5 -937.635)">
    <g id="Groupe_9391" data-name="Groupe 9391" transform="translate(-186.5 70.319)">
      <g id="Groupe_7542" data-name="Groupe 7542" transform="translate(-101 296.417)">
        <g id="Groupe_7341" data-name="Groupe 7341">
          <g id="Groupe_7325" data-name="Groupe 7325" transform="translate(1370 570.9)">
            <path id="Tracé_2992" data-name="Tracé 2992" d="M13.775,27.885,29.91,17.575l9.082,4.418v5.892l-8.975-3.191-8.269,4.051,8.269-5.7V20.888Z" transform="translate(3.485 4.447)" fill="#00408e"/>
            <path id="Tracé_2993" data-name="Tracé 2993" d="M13.775,34.3,29.91,23.99l9.082,3.131V34.3l-8.975-3.191-8.269,4.051,8.269-5.7V27.3Z" transform="translate(3.485 6.07)" fill="#00408e"/>
            <path id="Tracé_2994" data-name="Tracé 2994" d="M13.775,41.247,29.91,30.937l9.082,3.131v7.179l-8.975-3.191-8.269,4.051,8.269-5.7V34.25Z" transform="translate(3.485 7.828)" fill="#00408e"/>
            <path id="Tracé_2995" data-name="Tracé 2995" d="M13.775,48.17,29.91,37.86l9.082,3.131V48.17l-8.975-3.191L21.748,49.03l8.269-5.7V41.173Z" transform="translate(3.485 9.579)" fill="#00408e"/>
            <path id="Tracé_2996" data-name="Tracé 2996" d="M13.775,55.474,29.91,45.164l9.082,3.131v7.179l-8.975-3.191-8.269,4.051,8.269-5.7V48.477Z" transform="translate(3.485 11.427)" fill="#00408e"/>
            <path id="Tracé_2997" data-name="Tracé 2997" d="M13.775,62.4,29.91,52.092l9.082,3.131V62.4L30.016,59.21l-8.269,4.051,8.269-5.7V55.405Z" transform="translate(3.485 13.18)" fill="#00408e"/>
            <g id="Groupe_7326" data-name="Groupe 7326" transform="translate(0 0)">
              <g id="Groupe_7325-2" data-name="Groupe 7325" clip-path="url(#clip-path)">
                <path id="Tracé_2998" data-name="Tracé 2998" d="M21.981,73.919h0A54.016,54.016,0,0,0,16.6,75.573l-.008,0c-.352.129-.7.262-1.035.4h0c-4.384,1.738-7.8,3.912-9.87,6.359,3.694-1.972,9.049-3.61,15.48-4.731,1.511-.264,3.084-.5,4.708-.7h0q.616-.077,1.239-.149h0c1.278-.147,2.589-.272,3.924-.38q2.31-.186,4.723-.288c1.4-.059,2.816-.1,4.251-.11a.556.556,0,0,1,.064,0h0l.447,0,.892,0q.925,0,1.839.013c.308,0,.615.01.921.015q1.566.032,3.094.1l.514.024q.759.036,1.507.081c.172.009.343.019.514.03,1.755.113,3.472.259,5.137.44.623.065,1.238.138,1.847.213.446.055.885.112,1.322.172.223.031.447.061.668.094q3.043.436,5.8,1.015c.009,0,.019,0,.029.008q.923.192,1.8.4c.377.088.748.179,1.114.272l.516.133a42.441,42.441,0,0,1,9.113,3.362,24.081,24.081,0,0,0-9.113-6.051V48.954L57.1,46.468l-2.476-.56L54.6,45.9l-5.3,4.173V71.986q-.748-.066-1.507-.119l-.514-.036V49.094l.771-.608,5.3-4.171.7-.555.881.149.023,0,.056.009.056.015,2.473.56,1.557.353V10.01L57.417,8.843V20.568H56.252V8.038L54.261,6.657V40.7H52.08V5.146L50.5,4.053h0L48.135,2.41V31.389H46.97V1.6L44.776.086,26.567,8.355V22.777l3.28-2.1.954-.61,1.019.5,1.554.756V21.1l4.337-1.97v4.3l2.708,1.318h0l3.253-1.479v4.62l-1.633.741v2.222l1.633-.741v4.62l-1.633.741V37.7l1.633-.742v4.62l-1.633.742v2.222l1.633-.741v4.62l-1.633.741v2.224l1.633-.741V55.26L42.039,56v2.223l1.633-.741V62.1l-1.633.742v2.224l1.633-.742v4.62l-1.633.742v1.953h-.615q-.447,0-.892.005l-.514.006m2.6,0,1.055-.48v.5c-.351-.009-.7-.016-1.055-.02" transform="translate(1.439 0.022)" fill="#00408e"/>
                <path id="Tracé_2999" data-name="Tracé 2999" d="M5.377,82.668l.317-.376c2.049-2.42,5.474-4.627,9.908-6.385l.018-.008c.335-.13.674-.262,1.02-.388a53.744,53.744,0,0,1,5.4-1.66l.024,0v.188a54.476,54.476,0,0,0-5.343,1.648c-.361.134-.7.266-1.043.4l-.018.008A25.77,25.77,0,0,0,6.17,82.037a55.384,55.384,0,0,1,15.059-4.508c1.51-.263,3.1-.5,4.714-.7.412-.051.824-.1,1.242-.15,1.224-.14,2.546-.267,3.931-.38,1.541-.124,3.133-.221,4.728-.289,1.39-.059,2.819-.1,4.254-.11h.066l.447,0c.912-.006,1.828,0,2.733.01l.618.01.3.005c1,.02,2.012.053,3.1.1l.514.024q.759.036,1.51.081c.17.009.342.019.514.03,1.749.113,3.478.261,5.141.441.649.068,1.3.145,1.847.213.446.055.887.112,1.323.172.226.03.447.061.669.094,2,.287,3.956.629,5.805,1.015l.03.008c.629.133,1.238.267,1.808.4.376.088.748.178,1.114.273l.388.1.125.034a43.518,43.518,0,0,1,8.688,3.136,24.922,24.922,0,0,0-8.747-5.649l-.058-.025V49.05L54.7,46.026l-5.229,4.116v21.97l-.1-.01c-.512-.046-1.019-.085-1.5-.119-.114-.01-.229-.016-.342-.025l-.259-.018V49.071l.8-.637,6.037-4.751.041.006,1.024.179,3.914.886V10.08L57.59,9.044V20.683H56.238V8.108l-1.8-1.251V40.817H52.066V5.218L48.309,2.613V31.5H46.954V1.675L44.846.216,26.74,8.437v14.19l4.135-2.644,2.485,1.209v-.127l4.525-2.055v4.383L40.5,24.668l3.346-1.522v4.827l-1.631.741v2.016l1.631-.741v4.824l-.055.026-1.576.715v2.019l1.631-.742v4.825l-.055.026-1.576.715v2.016l1.631-.739V48.5l-.055.026-1.576.714v2.017l1.631-.741v4.825l-.055.026-1.576.715V58.1l1.631-.741v4.825l-.055.026-1.576.715v2.019l1.631-.743v4.827l-.055.025-1.576.717v1.989H41.5c-.3,0-.6,0-.891,0-.117,0-.232,0-.346.005H40.1l0-.188.168,0,.346-.005q.445,0,.893,0h.521v-1.92l.055-.025,1.576-.717V64.493l-1.631.743V62.8l.055-.025,1.576-.717V57.65l-1.631.741V55.963l.055-.025,1.576-.717V50.808l-1.631.741v-2.43l.055-.025,1.576-.715V43.966l-1.631.741V42.278l.055-.025,1.576-.717V37.122l-1.631.743V35.434l.055-.025,1.576-.715V30.279l-1.631.741V28.591l1.631-.739V23.439l-3.18,1.426-.021-.01L37.7,23.512V19.3l-4.149,1.885v.3L30.887,20.2,26.55,22.97V8.315l.055-.025L44.866,0l2.278,1.578V31.315h.976V2.253L52.253,5.12V40.629h1.992V6.5l2.18,1.511V20.5H57.4V8.686l1.873,1.3V44.988l-4.255-.961-.862-.145-.672.529-6.033,4.75v22.6l.084.005.343.025c.454.031.927.069,1.406.112V50.05l.035-.028,5.332-4.2.068.013,13.5,3.064V76.24a24.216,24.216,0,0,1,9.093,6.052l.317.376-.434-.232A42.2,42.2,0,0,0,68.1,79.081l-.125-.031c-.129-.034-.258-.068-.387-.1-.367-.094-.737-.185-1.111-.273-.57-.134-1.177-.269-1.8-.4a.268.268,0,0,1-.044-.011c-1.831-.382-3.78-.722-5.779-1.01-.222-.033-.445-.063-.668-.094-.435-.06-.877-.117-1.319-.172-.549-.066-1.2-.144-1.846-.213-1.659-.178-3.387-.326-5.135-.437-.169-.013-.34-.023-.511-.031-.5-.031-1-.056-1.507-.081l-.512-.024c-1.081-.046-2.094-.079-3.092-.1l-.3-.005-.616-.009c-.9-.013-1.823-.018-2.728-.01l-.447,0a.328.328,0,0,0-.061,0c-1.438.014-2.867.051-4.254.11-1.591.066-3.18.164-4.72.288-1.382.112-2.7.239-3.922.378-.419.048-.831.1-1.24.149-1.616.2-3.2.441-4.706.7C14.842,78.833,9.5,80.467,5.811,82.436ZM43.845,71.786l-.1,0c-.35-.009-.7-.016-1.054-.019l-.422-.005,1.573-.715Zm-.728-.2.54.011v-.257Z" transform="translate(1.36 0)" fill="#00408e"/>
                <path id="Tracé_3000" data-name="Tracé 3000" d="M27.772,15.577l-4.9,2.224V13.183l4.9-2.225Z" transform="translate(5.788 2.773)" fill="#dff1f4"/>
                <path id="Tracé_3001" data-name="Tracé 3001" d="M27.772,10.117l-4.9,2.222V7.719l4.9-2.222Z" transform="translate(5.788 1.391)" fill="#dff1f4"/>
                <path id="Tracé_3002" data-name="Tracé 3002" d="M31.946,3.6l4.9-2.224V6l-4.9,2.225Z" transform="translate(8.083 0.349)" fill="#dff1f4"/>
                <path id="Tracé_3003" data-name="Tracé 3003" d="M31.946,9.062l4.9-2.222v4.62l-4.9,2.222Z" transform="translate(8.083 1.731)" fill="#dff1f4"/>
                <path id="Tracé_3004" data-name="Tracé 3004" d="M31.971,13.62l-4.337,1.968v-4.62L31.971,9Z" transform="translate(6.992 2.277)" fill="#dff1f4"/>
                <path id="Tracé_3005" data-name="Tracé 3005" d="M31.971,8.159l-4.337,1.968V5.508l4.337-1.968Z" transform="translate(6.992 0.896)" fill="#dff1f4"/>
                <path id="Tracé_3006" data-name="Tracé 3006" d="M31.946,19.143v-4.62l4.9-2.223v4.62Z" transform="translate(8.083 3.112)" fill="#dff1f4"/>
                <path id="Tracé_3007" data-name="Tracé 3007" d="M56.212,60.916c-.432-.16-.873-.318-1.322-.47q-.331-.113-.67-.223c-1.764-.574-3.653-1.083-5.641-1.517-.222-.05-.444-.1-.669-.144q-.654-.137-1.322-.262-.91-.173-1.847-.325v-.192c.3.063,1.093.228,2.144.451,3.056.65,8.331,1.786,10.359,2.314v.766q-.507-.2-1.031-.4" transform="translate(11.32 14.62)" fill="#dff1f4"/>
                <path id="Tracé_3008" data-name="Tracé 3008" d="M44.742,37.857c.3.063,1.093.229,2.144.452,3.056.649,8.331,1.784,10.357,2.313V42.55c-2.026-.529-7.3-1.664-10.357-2.314-1.051-.223-1.839-.39-2.144-.452Z" transform="translate(11.32 9.579)" fill="#dff1f4"/>
                <path id="Tracé_3009" data-name="Tracé 3009" d="M44.742,40.7c.3.063,1.093.229,2.144.452,3.056.649,8.331,1.786,10.357,2.313V45.4c-2.026-.529-7.3-1.664-10.357-2.314-1.051-.223-1.839-.39-2.144-.452Z" transform="translate(11.32 10.299)" fill="#dff1f4"/>
                <path id="Tracé_3010" data-name="Tracé 3010" d="M44.742,43.55c.3.064,1.093.229,2.144.454,3.056.648,8.331,1.784,10.357,2.312v1.927c-2.026-.529-7.3-1.664-10.357-2.313-1.051-.224-1.839-.388-2.144-.455Z" transform="translate(11.32 11.019)" fill="#dff1f4"/>
                <path id="Tracé_3011" data-name="Tracé 3011" d="M44.742,46.4c.3.064,1.093.229,2.144.454,3.056.648,8.331,1.784,10.357,2.312V51.09c-2.026-.529-7.3-1.664-10.357-2.313-1.051-.224-1.839-.391-2.144-.454Z" transform="translate(11.32 11.739)" fill="#dff1f4"/>
                <path id="Tracé_3012" data-name="Tracé 3012" d="M44.742,49.243c.3.064,1.093.229,2.144.454,3.056.648,8.331,1.784,10.357,2.312v1.927c-2.026-.529-7.3-1.664-10.357-2.313-1.051-.224-1.839-.391-2.144-.454Z" transform="translate(11.32 12.459)" fill="#dff1f4"/>
                <path id="Tracé_3013" data-name="Tracé 3013" d="M44.742,52.089c.3.064,1.093.231,2.144.455,3.056.647,8.331,1.784,10.357,2.311v1.927c-2.026-.528-7.3-1.664-10.357-2.313l-2.144-.454Z" transform="translate(11.32 13.179)" fill="#dff1f4"/>
                <path id="Tracé_3014" data-name="Tracé 3014" d="M44.742,54.937c.3.063,1.093.229,2.144.452,3.056.649,8.331,1.786,10.357,2.313V59.63c-2.026-.529-7.3-1.664-10.357-2.314-1.051-.223-1.839-.39-2.144-.452Z" transform="translate(11.32 13.9)" fill="#dff1f4"/>
                <path id="Tracé_3015" data-name="Tracé 3015" d="M50.44,35.932v2.02l-4.5-.967-5.3,4.173V63.07l-2.021-.157V40.176l6.773-5.333Z" transform="translate(9.771 8.816)" fill="#dff1f4"/>
                <path id="Tracé_3016" data-name="Tracé 3016" d="M18.689,59.471S28.956,56.986,36.73,57.2" transform="translate(4.729 14.47)" fill="#dff1f4"/>
                <path id="Tracé_3017" data-name="Tracé 3017" d="M18.716,59.581l-.044-.183c.1-.024,9.528-2.284,17.089-2.284q.492,0,.976.014l-.005.188q-.481-.013-.972-.013c-7.537,0-16.946,2.253-17.043,2.278" transform="translate(4.724 14.451)" fill="#48aae3"/>
                <path id="Tracé_3018" data-name="Tracé 3018" d="M38.523,1.027V31.268h1.492V2.1Z" transform="translate(9.747 0.26)" fill="#dff1f4"/>
                <path id="Tracé_3019" data-name="Tracé 3019" d="M42.4,3.695l-.076,36.6,3.032,0V5.779Z" transform="translate(10.708 0.935)" fill="#dff1f4"/>
                <path id="Tracé_3020" data-name="Tracé 3020" d="M45.889,6.148V19.41h1.679l-.09-12.167Z" transform="translate(11.611 1.556)" fill="#dff1f4"/>
              </g>
            </g>
          </g>
          <path id="Ligne_980" data-name="Ligne 980" d="M.25,45h-.5V0h.5Z" transform="translate(1387.5 603.5)" fill="#00408e"/>
        </g>
        <path id="Tracé_3021" data-name="Tracé 3021" d="M0,70.375S11.986,56.549,41.486,56.549,82.921,70.375,82.921,70.375a127.405,127.405,0,0,0-40.586-6.913C20,63.462,0,70.375,0,70.375" transform="translate(1370 585.209)" fill="#ffbf00"/>
      </g>
    </g>
  </g>
</svg>
