<svg xmlns="http://www.w3.org/2000/svg" xmlns:xlink="http://www.w3.org/1999/xlink" width="91.006" height="61.661" viewBox="0 0 91.006 61.661">
  <defs>
    <clipPath id="clip-path">
      <rect id="Rectangle_4319" data-name="Rectangle 4319" width="91.006" height="61.661" fill="none"/>
    </clipPath>
  </defs>
  <g id="EV" transform="translate(-1005.5 -699.204)">
    <g id="Groupe_7610" data-name="Groupe 7610" transform="translate(1005.5 699.204)">
      <path id="Tracé_3387" data-name="Tracé 3387" d="M74.9,69.033l16.908,1.741,9.4-1.762L84.537,66.917Z" transform="translate(-10.2 -9.113)" fill="#151a1d"/>
      <path id="Tracé_3388" data-name="Tracé 3388" d="M98.815,60.434l-5.177.971V5.517h5.177Z" transform="translate(-12.751 -0.751)" fill="#00408e"/>
      <g id="Groupe_7609" data-name="Groupe 7609" transform="translate(0 0)">
        <g id="Groupe_7608" data-name="Groupe 7608" clip-path="url(#clip-path)">
          <path id="Tracé_3389" data-name="Tracé 3389" d="M93.424.125H88.247V4.949h.536A4.65,4.65,0,1,0,93.424.125" transform="translate(-12.017 -0.017)" fill="#00408e"/>
          <path id="Tracé_3390" data-name="Tracé 3390" d="M87.513.125a4.657,4.657,0,0,0-4.657,4.657v54.93l9.315.959V4.782A4.657,4.657,0,0,0,87.513.125" transform="translate(-11.283 -0.017)" fill="#fff"/>
          <path id="Tracé_3391" data-name="Tracé 3391" d="M92.261,60.773l-.118-.012-9.412-.968V4.765a4.765,4.765,0,0,1,9.531,0ZM82.946,59.6l9.1.937V4.765a4.549,4.549,0,0,0-9.1,0Z" transform="translate(-11.266 0)" fill="#e9e9e8"/>
          <path id="Tracé_3392" data-name="Tracé 3392" d="M87.609,52.986V32.03a1.678,1.678,0,0,1,1.024-1.545A1.678,1.678,0,0,0,86.3,32.03V52.986a1.678,1.678,0,0,0,2.329,1.545,1.678,1.678,0,0,1-1.024-1.545" transform="translate(-11.753 -4.133)" fill="#b7bbbe"/>
          <path id="Tracé_3393" data-name="Tracé 3393" d="M88.856,4.278l-3,5.3H87.9l-.548,2.651L89.989,7.58H88.062Z" transform="translate(-11.691 -0.582)" fill="#ffbf00"/>
          <rect id="Rectangle_4315" data-name="Rectangle 4315" width="2.049" height="3.879" transform="translate(75.857 36.433)" fill="#ffbf00"/>
          <rect id="Rectangle_4316" data-name="Rectangle 4316" width="2.049" height="3.879" transform="translate(75.857 40.891)" fill="#ffbf00"/>
          <rect id="Rectangle_4317" data-name="Rectangle 4317" width="2.049" height="3.879" transform="translate(75.857 31.977)" fill="#999"/>
          <path id="Tracé_3394" data-name="Tracé 3394" d="M87.815,56a1.678,1.678,0,0,0,1.024,1.545A1.678,1.678,0,0,0,89.864,56V52.5H87.815Z" transform="translate(-11.958 -7.149)" fill="#ffbf00"/>
          <path id="Tracé_3395" data-name="Tracé 3395" d="M89.865,32.05A1.678,1.678,0,0,0,88.84,30.5a1.678,1.678,0,0,0-1.024,1.545v3.5h2.049Z" transform="translate(-11.959 -4.154)" fill="#999"/>
          <path id="Tracé_3396" data-name="Tracé 3396" d="M61.483,45.763,64.535,45a.854.854,0,0,1,1.047.669l.682,3.6a.855.855,0,0,1-.733,1.006l-3.115.393a.855.855,0,0,1-.946-.688l-.618-3.232a.855.855,0,0,1,.631-.989" transform="translate(-8.285 -6.124)" fill="#111315"/>
          <path id="Tracé_3397" data-name="Tracé 3397" d="M64.447,48.086a41.107,41.107,0,0,1,4.615,1.674,9.231,9.231,0,0,1,1.282.857.276.276,0,0,0,.4-.028,1.218,1.218,0,0,1,1.456-.437,3.943,3.943,0,0,0-.755-.994,1.644,1.644,0,0,0-1.309.468.536.536,0,0,1-.575.087l-.986-.438-4.6-2.053-1.079-.334a1.331,1.331,0,0,0,.091,1.188,2.519,2.519,0,0,1,1.464.01" transform="translate(-8.55 -6.385)" fill="#fff"/>
          <path id="Tracé_3398" data-name="Tracé 3398" d="M63.988,47.088l4.6,2.052.987.439a.541.541,0,0,0,.58-.092,1.641,1.641,0,0,1,1.3-.464c-.142-.141-.243-.227-.243-.227a5.787,5.787,0,0,0-2.562-1.15,3,3,0,0,1-2.091-1.1c-.257-.263-.766-1.035-2.8-.395a1.35,1.35,0,0,0-.848.6Z" transform="translate(-8.567 -6.251)" fill="#151a1d"/>
          <path id="Tracé_3399" data-name="Tracé 3399" d="M65.109,50.087a3.847,3.847,0,0,0,1.121-.4.483.483,0,0,1,.512-.02,1.362,1.362,0,0,1,.282.223A5.118,5.118,0,0,0,69.6,51.4a4.867,4.867,0,0,0,1.705.246s.986.049,1.051-.739a1.162,1.162,0,0,0-.135-.585,1.22,1.22,0,0,0-1.456.437.275.275,0,0,1-.4.027,9.237,9.237,0,0,0-1.281-.856,41.107,41.107,0,0,0-4.615-1.674,2.506,2.506,0,0,0-1.465-.01,3.912,3.912,0,0,0,.578.854s.357,1.281,1.517.986" transform="translate(-8.581 -6.556)" fill="#bdbfcb"/>
          <path id="Tracé_3400" data-name="Tracé 3400" d="M65.191,47.186c-.091-.836-.158-2.907-.158-2.907s.005-.581-.263-.783l-.19-.158-.146.11-.056.018c-.527.2-2,.9-2.585,1.185a1.841,1.841,0,0,0-.729.621,1.235,1.235,0,0,0-.233.731,20.186,20.186,0,0,0,.409,3.25l-.014.3.126.125.2.169a.573.573,0,0,0,.657-.012A15.326,15.326,0,0,0,64.6,48.445a1.616,1.616,0,0,0,.536-.768,1.227,1.227,0,0,0,.058-.491" transform="translate(-8.284 -5.902)" fill="#151a1d"/>
          <path id="Tracé_3401" data-name="Tracé 3401" d="M61.536,44.452a1.841,1.841,0,0,0-.729.621,1.241,1.241,0,0,0-.233.731,14.458,14.458,0,0,0,.567,3.646s.2.508.813.186a15.369,15.369,0,0,0,2.387-1.39,1.621,1.621,0,0,0,.536-.769,1.2,1.2,0,0,0,.058-.491c-.09-.836-.158-2.907-.158-2.907s.01-1.059-.655-.813c-.527.2-2,.9-2.585,1.185" transform="translate(-8.249 -5.887)" fill="#e0dcde"/>
          <path id="Tracé_3402" data-name="Tracé 3402" d="M73.528,51.4a.478.478,0,1,1-.477-.505.492.492,0,0,1,.477.505" transform="translate(-9.883 -6.93)" fill="#151a1d"/>
          <path id="Tracé_3403" data-name="Tracé 3403" d="M83.939,19.4a3.325,3.325,0,1,1,3.325,3.325A3.325,3.325,0,0,1,83.939,19.4" transform="translate(-11.431 -2.188)" fill="#bdbfcb"/>
          <path id="Tracé_3404" data-name="Tracé 3404" d="M84.693,19.5a2.674,2.674,0,1,1,2.674,2.674A2.674,2.674,0,0,1,84.693,19.5" transform="translate(-11.533 -2.291)" fill="#151a1d"/>
          <path id="Tracé_3405" data-name="Tracé 3405" d="M89.027,18.776a2.137,2.137,0,0,0-.33-.5.291.291,0,0,1-.263.41c-.634.1-1.491,1.217-1.919,1.543a1.408,1.408,0,0,1-1.748.086,1.288,1.288,0,0,0-1.594.188,1.63,1.63,0,0,1-.487.276,2.118,2.118,0,0,0-.1.546,1.687,1.687,0,0,0,.033.326,1.586,1.586,0,0,1,1.307-.6,1.338,1.338,0,0,1,1.478,1.123.882.882,0,0,1-.068.337,4.388,4.388,0,0,0,1-.517l.186-.017a7.8,7.8,0,0,1,1.185-1.818c.647-.645.947-.517,1.313-1.382" transform="translate(-11.247 -2.489)" fill="#fff"/>
          <path id="Tracé_3406" data-name="Tracé 3406" d="M84.781,20.2a1.406,1.406,0,0,0,1.748-.086c.428-.326,1.285-1.44,1.92-1.543a.291.291,0,0,0,.263-.41,2.147,2.147,0,0,0-1.618-.733,2.636,2.636,0,0,0-2.459,1.7A2.592,2.592,0,0,0,82.7,20.664a1.641,1.641,0,0,0,.487-.276,1.287,1.287,0,0,1,1.594-.188" transform="translate(-11.262 -2.373)" fill="#151a1d"/>
          <path id="Tracé_3407" data-name="Tracé 3407" d="M89.854,19.776a2.151,2.151,0,0,0-.206-.922c-.366.866-.666.737-1.314,1.383a7.8,7.8,0,0,0-1.185,1.817A5.316,5.316,0,0,0,88.44,21.8a2.156,2.156,0,0,0,1.414-2.024" transform="translate(-11.868 -2.567)" fill="#bdbfcb"/>
          <path id="Tracé_3408" data-name="Tracé 3408" d="M83.935,21.489a1.584,1.584,0,0,0-1.307.6c.1.5.466,1.36,1.894,1.063a3.63,3.63,0,0,0,.822-.2.882.882,0,0,0,.068-.337,1.338,1.338,0,0,0-1.478-1.123" transform="translate(-11.252 -2.926)" fill="#bdbfcb"/>
          <path id="Tracé_3409" data-name="Tracé 3409" d="M83.171,22.461a.618.618,0,1,1,.618.618.619.619,0,0,1-.618-.618" transform="translate(-11.326 -2.974)" fill="#151a1d"/>
          <path id="Tracé_3410" data-name="Tracé 3410" d="M76.383,63.708a1.787,1.787,0,0,1-1.546-.757c-1.167-1.691.127-5.82,1-8.13a11.259,11.259,0,0,0,.667-2.712c.136-1.189.116-2.788-.746-3.647a2.888,2.888,0,0,0-2.479-.608.376.376,0,0,1-.088-.747,3.589,3.589,0,0,1,3.1.822c.863.86,1.188,2.3.963,4.266a11.984,11.984,0,0,1-.711,2.892c-1.065,2.813-1.91,6.244-1.086,7.438a1.026,1.026,0,0,0,.927.432,1.5,1.5,0,0,0,1.108-.482c1.4-1.413,1.367-5.257,1.367-5.3,0-.193-.076-19.013,0-26.254.079-7.5,3.309-8.73,3.447-8.778a.376.376,0,0,1,.255.707,3.475,3.475,0,0,0-1.43,1.392c-.672,1.046-1.481,3.055-1.519,6.687-.076,7.236,0,26.05,0,26.24,0,.167.034,4.192-1.583,5.829a2.246,2.246,0,0,1-1.644.706" transform="translate(-9.922 -3.013)" fill="#00408e"/>
          <rect id="Rectangle_4318" data-name="Rectangle 4318" width="50.929" height="13.099" transform="translate(4.343 35.386)" fill="#ffbf00"/>
          <path id="Tracé_3411" data-name="Tracé 3411" d="M65.6,61.18a20.164,20.164,0,0,1-7.989,2.744V66.05s.045,1.687,1.543,1.687h4.626a1.744,1.744,0,0,0,1.82-1.719Z" transform="translate(-7.846 -8.331)" fill="#151a1d"/>
          <path id="Tracé_3412" data-name="Tracé 3412" d="M2.519,61.18a20.164,20.164,0,0,0,7.989,2.744V66.05s-.045,1.687-1.543,1.687H4.339a1.744,1.744,0,0,1-1.82-1.719Z" transform="translate(-0.343 -8.331)" fill="#151a1d"/>
          <path id="Tracé_3413" data-name="Tracé 3413" d="M59.891,33.75c0-.772-4.721-.863-5.311.226A3.826,3.826,0,0,1,53.1,35.341c-1.809-3.043-4.033-7.384-6.368-9.625-2.8-2.683-16.356-2.679-16.762-2.678S16,23.033,13.206,25.716c-2.335,2.241-4.559,6.581-6.368,9.625a3.826,3.826,0,0,1-1.484-1.364c-.59-1.089-5.311-1-5.311-.226,0,.714-.854,3.719,5.054,4.094a2.867,2.867,0,0,1-.289.263c-1.861,1.452-2.632,3.676-2.632,16.931,0,0,5.129,2.813,8.4,2.813h8.489a.5.5,0,0,0,.376-.169,4.62,4.62,0,0,1,3.618-1.238H36.878A4.62,4.62,0,0,1,40.5,57.682a.5.5,0,0,0,.376.169h8.489c3.269,0,8.4-2.813,8.4-2.813,0-13.255-.771-15.479-2.632-16.931a2.777,2.777,0,0,1-.289-.263c5.909-.375,5.054-3.38,5.054-4.094M16.077,45.768c-2.622-.374-7,2.008-9.633.328s-1.3-4.7-1.3-4.7c10.138.018,13.556,4.748,10.934,4.374m13.9-9.949h-.018c-.607.005-16.211.131-20.928-1.07,0,0,3.246-7.9,6.2-8.9C18.635,24.7,29.6,24.6,29.967,24.6s11.332.1,14.74,1.253c2.951,1,6.2,8.9,6.2,8.9-4.717,1.2-20.321,1.075-20.928,1.07M53.491,46.1c-2.633,1.679-7.012-.7-9.633-.328s.8-4.355,10.934-4.374c0,0,1.332,3.023-1.3,4.7" transform="translate(0 -3.137)" fill="#00408e"/>
        </g>
      </g>
    </g>
  </g>
</svg>
