<svg xmlns="http://www.w3.org/2000/svg" xmlns:xlink="http://www.w3.org/1999/xlink" width="85.165" height="93.029" viewBox="0 0 85.165 93.029">
  <defs>
    <clipPath id="clip-path">
      <rect id="Rectangle_4172" data-name="Rectangle 4172" width="85.165" height="93.029" fill="none"/>
    </clipPath>
  </defs>
  <g id="wind_turbine" transform="translate(-490.489 -291.195)">
    <g id="Groupe_7540" data-name="Groupe 7540" transform="translate(490.489 291.195)">
      <path id="Tracé_2911" data-name="Tracé 2911" d="M52.822,36.021l2.14,38.133H48.492l2.143-38.133Z" transform="translate(13.914 10.335)" fill="#00408e"/>
      <path id="Tracé_2912" data-name="Tracé 2912" d="M55.17,74.351H48.36l.009-.17L50.519,35.9h2.493l.008.152ZM48.7,74.029h6.132L52.707,36.218H50.823Z" transform="translate(13.876 10.3)" fill="#00408e"/>
      <path id="Tracé_2913" data-name="Tracé 2913" d="M52.536,36.454h-2.2l-.818-1.941h3.839Z" transform="translate(14.207 9.903)" fill="#00408e"/>
      <path id="Tracé_2914" data-name="Tracé 2914" d="M52.7,36.65H50.28l-.954-2.262H53.65Zm-2.2-.322h1.991l.681-1.619H49.811Z" transform="translate(14.153 9.867)" fill="#00408e"/>
      <g id="Groupe_7320" data-name="Groupe 7320" transform="translate(0 0)">
        <g id="Groupe_7319" data-name="Groupe 7319" clip-path="url(#clip-path)">
          <path id="Tracé_2915" data-name="Tracé 2915" d="M52.543,35.623V16.047a.08.08,0,0,0-.08-.082.082.082,0,0,0-.049.015l-1.076.748a.242.242,0,0,0-.1.151L48.379,32.848a.235.235,0,0,0,.064.207L51.087,35.7a.235.235,0,0,0,.147.067l1.058.085a.235.235,0,0,0,.252-.215Z" transform="translate(13.88 4.581)" fill="#c8e7f1"/>
          <path id="Tracé_2916" data-name="Tracé 2916" d="M51.615,34.05V16.409l-.277.192a.242.242,0,0,0-.1.151L48.379,32.721a.238.238,0,0,0,.064.207l2.1,2.1.86-.574a.482.482,0,0,0,.214-.4" transform="translate(13.88 4.708)" fill="#00408e"/>
          <path id="Tracé_2917" data-name="Tracé 2917" d="M50.556,35.3l-2.192-2.189a.4.4,0,0,1-.109-.35L51.12,16.792a.393.393,0,0,1,.161-.252l.53-.369V34.119a.64.64,0,0,1-.286.534Zm.933-18.515-.024.017a.081.081,0,0,0-.028.048L48.572,32.818a.07.07,0,0,0,.022.067l2,2,.75-.5a.322.322,0,0,0,.142-.266Z" transform="translate(13.844 4.64)" fill="#00408e"/>
          <path id="Tracé_2918" data-name="Tracé 2918" d="M52.858,33.6,35.909,43.388a.081.081,0,0,0-.035.109.076.076,0,0,0,.035.035l1.187.557a.239.239,0,0,0,.179.009l15.262-5.505a.235.235,0,0,0,.147-.158l.966-3.612a.239.239,0,0,0-.014-.161l-.454-.957a.236.236,0,0,0-.314-.107Z" transform="translate(10.291 9.633)" fill="#c8e7f1"/>
          <path id="Tracé_2919" data-name="Tracé 2919" d="M51.866,34.8,36.59,43.611l.3.143a.239.239,0,0,0,.179.009l15.263-5.505a.237.237,0,0,0,.147-.158l.771-2.866-.928-.458A.482.482,0,0,0,51.866,34.8Z" transform="translate(10.499 9.964)" fill="#00408e"/>
          <path id="Tracé_2920" data-name="Tracé 2920" d="M37.07,43.975a.381.381,0,0,1-.171-.041l-.579-.272.266-.154,15.275-8.813a.638.638,0,0,1,.61-.028l1.048.517-.806,2.993a.4.4,0,0,1-.247.268L37.2,43.95a.359.359,0,0,1-.131.024m-.057-.342.024.012a.067.067,0,0,0,.057,0l15.262-5.505a.078.078,0,0,0,.046-.05l.736-2.739-.811-.4a.313.313,0,0,0-.3.015h0Z" transform="translate(10.421 9.928)" fill="#00408e"/>
          <path id="Tracé_2921" data-name="Tracé 2921" d="M52.41,35.127l16.95,9.786a.081.081,0,0,0,.111-.03.086.086,0,0,0,.01-.048l-.109-1.306a.234.234,0,0,0-.082-.16l-12.4-10.464a.228.228,0,0,0-.211-.046l-3.61.966a.235.235,0,0,0-.129.093l-.6.874a.234.234,0,0,0,.058.326Z" transform="translate(15.006 9.426)" fill="#c8e7f1"/>
          <path id="Tracé_2922" data-name="Tracé 2922" d="M53.783,35.044l15.278,8.821-.028-.335a.234.234,0,0,0-.082-.16l-12.4-10.464a.228.228,0,0,0-.211-.046l-2.865.771.067,1.028A.484.484,0,0,0,53.783,35.044Z" transform="translate(15.344 9.426)" fill="#00408e"/>
          <path id="Tracé_2923" data-name="Tracé 2923" d="M69.287,44.194,53.74,35.219a.647.647,0,0,1-.319-.513l-.076-1.16,2.993-.807a.4.4,0,0,1,.356.08l12.4,10.464a.407.407,0,0,1,.138.27ZM53.9,34.94l15.012,8.666,0-.026a.074.074,0,0,0-.026-.051l-12.4-10.464a.063.063,0,0,0-.064-.014l-2.737.736.058.9a.322.322,0,0,0,.158.255" transform="translate(15.306 9.39)" fill="#00408e"/>
          <path id="Tracé_2924" data-name="Tracé 2924" d="M54.689,33.4a3.011,3.011,0,1,1-3.011-3.011A3.011,3.011,0,0,1,54.689,33.4" transform="translate(13.964 8.718)" fill="#00408e"/>
          <path id="Tracé_2925" data-name="Tracé 2925" d="M51.451,31.174a2,2,0,1,1-2,2,2,2,0,0,1,2-2" transform="translate(14.19 8.945)" fill="#ffbf00"/>
          <path id="Tracé_2926" data-name="Tracé 2926" d="M24.542,26.454l2.824,50.3H18.831l2.825-50.3Z" transform="translate(5.403 7.591)" fill="#00408e"/>
          <path id="Tracé_2927" data-name="Tracé 2927" d="M27.64,77.009H18.657l.012-.224,2.836-50.5h3.287l.012.2ZM19.1,76.585h8.087l-2.8-49.871H21.906Z" transform="translate(5.353 7.543)" fill="#00408e"/>
          <path id="Tracé_2928" data-name="Tracé 2928" d="M24.165,27.025H21.258l-1.078-2.56h5.064Z" transform="translate(5.79 7.02)" fill="#00408e"/>
          <path id="Tracé_2929" data-name="Tracé 2929" d="M24.378,27.284H21.189L19.93,24.3h5.7ZM21.47,26.86H24.1l.9-2.135H20.571Z" transform="translate(5.718 6.972)" fill="#00408e"/>
          <path id="Tracé_2930" data-name="Tracé 2930" d="M24.174,25.929V.109A.108.108,0,0,0,24.068,0,.116.116,0,0,0,24,.021l-1.419.987a.322.322,0,0,0-.127.2L18.681,22.269a.306.306,0,0,0,.085.273l3.486,3.488a.3.3,0,0,0,.193.088l1.4.112a.307.307,0,0,0,.331-.283Z" transform="translate(5.359 0)" fill="#c8e7f1"/>
          <path id="Tracé_2931" data-name="Tracé 2931" d="M22.95,23.854V.586l-.364.252a.316.316,0,0,0-.127.2L18.681,22.1a.312.312,0,0,0,.085.274l2.768,2.766,1.134-.758a.635.635,0,0,0,.282-.528" transform="translate(5.359 0.168)" fill="#00408e"/>
          <path id="Tracé_2932" data-name="Tracé 2932" d="M21.554,25.5l-2.89-2.888a.529.529,0,0,1-.144-.462L22.3,1.091a.526.526,0,0,1,.212-.333l.7-.486V23.945a.846.846,0,0,1-.377.7Zm1.23-24.421-.031.022a.1.1,0,0,0-.039.063L18.937,22.229a.1.1,0,0,0,.028.089l2.642,2.638.99-.659a.423.423,0,0,0,.188-.351Z" transform="translate(5.311 0.078)" fill="#00408e"/>
          <path id="Tracé_2933" data-name="Tracé 2933" d="M24.589,23.265,2.234,36.172a.106.106,0,0,0-.046.143.107.107,0,0,0,.046.046L3.8,37.1a.309.309,0,0,0,.237.012l20.13-7.262a.31.31,0,0,0,.193-.208l1.275-4.763a.317.317,0,0,0-.019-.212l-.6-1.264a.308.308,0,0,0-.413-.14Z" transform="translate(0.624 6.664)" fill="#c8e7f1"/>
          <path id="Tracé_2934" data-name="Tracé 2934" d="M23.28,24.838,3.131,36.466l.4.188a.309.309,0,0,0,.237.012L23.9,29.4a.307.307,0,0,0,.193-.208l1.018-3.78-1.225-.6A.632.632,0,0,0,23.28,24.838Z" transform="translate(0.898 7.101)" fill="#00408e"/>
          <path id="Tracé_2935" data-name="Tracé 2935" d="M3.766,36.943a.508.508,0,0,1-.225-.053l-.764-.358.351-.2L23.274,24.7a.838.838,0,0,1,.8-.036l1.382.681L24.4,29.3a.525.525,0,0,1-.326.353L3.939,36.912a.481.481,0,0,1-.174.031m-.075-.45.031.015a.1.1,0,0,0,.077,0l20.129-7.26a.108.108,0,0,0,.06-.067l.972-3.611-1.069-.526a.412.412,0,0,0-.4.021h0Z" transform="translate(0.797 7.053)" fill="#00408e"/>
          <path id="Tracé_2936" data-name="Tracé 2936" d="M24,25.275,46.356,38.183a.11.11,0,0,0,.147-.04.106.106,0,0,0,.013-.062l-.144-1.723a.305.305,0,0,0-.108-.211l-16.354-13.8a.305.305,0,0,0-.278-.062l-4.762,1.275a.326.326,0,0,0-.17.122l-.793,1.153a.308.308,0,0,0,.076.43Z" transform="translate(6.843 6.391)" fill="#c8e7f1"/>
          <path id="Tracé_2937" data-name="Tracé 2937" d="M25.81,25.165,45.962,36.8l-.037-.441a.305.305,0,0,0-.108-.21l-16.354-13.8a.3.3,0,0,0-.278-.062L25.406,23.3l.089,1.356A.637.637,0,0,0,25.81,25.165Z" transform="translate(7.29 6.391)" fill="#00408e"/>
          <path id="Tracé_2938" data-name="Tracé 2938" d="M46.26,37.235,25.753,25.4a.853.853,0,0,1-.421-.677l-.1-1.529,3.947-1.064a.516.516,0,0,1,.47.1L46,36.033a.53.53,0,0,1,.183.356ZM25.965,25.028l19.8,11.43,0-.035a.091.091,0,0,0-.035-.067l-16.352-13.8a.086.086,0,0,0-.085-.018l-3.611.972.077,1.184a.42.42,0,0,0,.208.336" transform="translate(7.24 6.343)" fill="#00408e"/>
          <path id="Tracé_2939" data-name="Tracé 2939" d="M27,22.992a3.971,3.971,0,1,1-3.971-3.971A3.972,3.972,0,0,1,27,22.992" transform="translate(5.469 5.458)" fill="#00408e"/>
          <path id="Tracé_2940" data-name="Tracé 2940" d="M22.734,20.061A2.633,2.633,0,1,1,20.1,22.694a2.633,2.633,0,0,1,2.633-2.633" transform="translate(5.767 5.756)" fill="#ffbf00"/>
          <path id="Tracé_2941" data-name="Tracé 2941" d="M0,75.454s12.311-14.2,42.609-14.2,42.556,14.2,42.556,14.2a130.853,130.853,0,0,0-41.685-7.1c-22.937,0-43.48,7.1-43.48,7.1" transform="translate(0 17.575)" fill="#ffbf00"/>
        </g>
      </g>
    </g>
  </g>
</svg>
