<svg xmlns="http://www.w3.org/2000/svg" width="89" height="48.313" viewBox="0 0 89 48.313">
  <g id="sliding" transform="translate(-547 -944.604)">
    <path id="Tracé_4699" data-name="Tracé 4699" d="M-3328.327,7223.39a8.639,8.639,0,0,1-6.166-2.651,18.22,18.22,0,0,1-3.845-6.043,40.889,40.889,0,0,1-2.222-7.428,60.961,60.961,0,0,1-1.037-7.2,51.759,51.759,0,0,0-3.2-14.461c-2.124-5.062-4.938-7.627-8.362-7.627-1.64,0-3.312,1.045-4.97,3.105a31.42,31.42,0,0,0-4.231,7.67,76.833,76.833,0,0,0-3.574,11.494l-2.83-.1a75.963,75.963,0,0,1,3.708-12.456c3.423-8.367,7.425-12.609,11.9-12.609a9.637,9.637,0,0,1,6.827,2.864,19.339,19.339,0,0,1,4.207,6.539,53.63,53.63,0,0,1,3.419,15.342,49.308,49.308,0,0,0,3.044,13.752c1.924,4.59,4.393,6.917,7.339,6.917,2.669,0,5.924-3.609,9.165-10.163a84.5,84.5,0,0,0,4.353-10.815h3.022a93.631,93.631,0,0,1-4.762,12.07,37.981,37.981,0,0,1-4.945,7.865C-3323.746,7222.064-3326.045,7223.39-3328.327,7223.39Z" transform="translate(3927.415 -6230.474)" fill="#00408e"/>
    <path id="Tracé_4699-2" data-name="Tracé 4699" d="M-3328.411,7223.39a8.639,8.639,0,0,1-6.166-2.651,18.22,18.22,0,0,1-3.845-6.043,40.889,40.889,0,0,1-2.222-7.428,60.961,60.961,0,0,1-1.037-7.2,51.759,51.759,0,0,0-3.2-14.461c-2.124-5.062-4.938-7.627-8.362-7.627-1.64,0-3.312,1.045-4.97,3.105a31.42,31.42,0,0,0-4.231,7.67,76.833,76.833,0,0,0-3.574,11.494h-3.05a89.706,89.706,0,0,1,3.928-12.558c3.423-8.367,7.425-12.609,11.9-12.609a9.637,9.637,0,0,1,6.827,2.864,19.339,19.339,0,0,1,4.207,6.539,53.63,53.63,0,0,1,3.419,15.342,49.308,49.308,0,0,0,3.044,13.752c1.924,4.59,4.393,6.917,7.339,6.917,2.669,0,5.924-3.609,9.165-10.163a84.5,84.5,0,0,0,4.353-10.815h2.947a87.93,87.93,0,0,1-4.687,12.07,37.981,37.981,0,0,1-4.945,7.865C-3323.83,7222.064-3326.129,7223.39-3328.411,7223.39Z" transform="translate(3935.468 -6230.474)" fill="#00408e"/>
    <path id="Union_65" data-name="Union 65" d="M0,3,5.147,0V6Zm5.147.749V2.25H25v1.5Z" transform="translate(547 971)" fill="#00408e"/>
    <path id="Union_66" data-name="Union 66" d="M19.853,3.75H0V2.25H19.853V0L25,3,19.853,6Z" transform="translate(611 963)" fill="#00408e"/>
  </g>
</svg>
