<svg xmlns="http://www.w3.org/2000/svg" xmlns:xlink="http://www.w3.org/1999/xlink" width="48.056" height="89.715" viewBox="0 0 48.056 89.715">
  <defs>
    <clipPath id="clip-path">
      <rect id="Rectangle_4144" data-name="Rectangle 4144" width="48.056" height="89.715" fill="none"/>
    </clipPath>
  </defs>
  <g id="battery" transform="translate(-1153.3 -860.721)">
    <g id="Groupe_7541" data-name="Groupe 7541" transform="translate(1153.3 860.721)">
      <g id="Groupe_7279" data-name="Groupe 7279" transform="translate(0 0)" clip-path="url(#clip-path)">
        <path id="Tracé_2882" data-name="Tracé 2882" d="M39.258,6.135H32.744A5.879,5.879,0,0,0,26.995.125H20.95a5.627,5.627,0,0,0-4.071,1.762A6.1,6.1,0,0,0,15.2,6.135H8.663A8.784,8.784,0,0,0,.125,15.124v65.39a8.762,8.762,0,0,0,8.538,8.964h30.6a8.781,8.781,0,0,0,8.561-8.964V15.124a8.8,8.8,0,0,0-8.561-8.989m4.86,74.379a5.262,5.262,0,0,1-.938,3.006,4.845,4.845,0,0,1-3.922,2.072H8.663a4.8,4.8,0,0,1-3.9-2.072,5.262,5.262,0,0,1-.938-3.006V15.124a4.976,4.976,0,0,1,4.837-5.1h30.6a4.979,4.979,0,0,1,4.86,5.1Z" transform="translate(0.056 0.055)" fill="#00408e"/>
        <path id="Tracé_2883" data-name="Tracé 2883" d="M39.312,89.715H8.717A8.948,8.948,0,0,1,0,80.57V15.18A8.962,8.962,0,0,1,8.717,6.01h6.36A6.3,6.3,0,0,1,16.8,1.818,5.831,5.831,0,0,1,21.005,0H27.05a6.019,6.019,0,0,1,5.925,6.01h6.337a8.974,8.974,0,0,1,8.743,9.169V80.57a8.96,8.96,0,0,1-8.743,9.145M8.717,6.372A8.6,8.6,0,0,0,.361,15.18V80.57a8.587,8.587,0,0,0,8.356,8.784h30.6a8.6,8.6,0,0,0,8.382-8.784V15.18a8.613,8.613,0,0,0-8.382-8.808H32.62V6.192A5.676,5.676,0,0,0,27.05.361H21.005a5.471,5.471,0,0,0-3.941,1.705,5.951,5.951,0,0,0-1.629,4.124v.181Zm30.6,79.457H8.717a4.952,4.952,0,0,1-4.045-2.147A5.437,5.437,0,0,1,3.7,80.57V15.18A5.163,5.163,0,0,1,8.717,9.9h30.6a5.172,5.172,0,0,1,5.041,5.283V80.57a5.42,5.42,0,0,1-.97,3.11,5.044,5.044,0,0,1-4.071,2.149M8.717,10.258A4.8,4.8,0,0,0,4.061,15.18V80.57a5.074,5.074,0,0,0,.906,2.9,4.6,4.6,0,0,0,3.75,1.994h30.6a4.685,4.685,0,0,0,3.776-2,5.078,5.078,0,0,0,.9-2.9V15.18a4.811,4.811,0,0,0-4.679-4.922Z" transform="translate(0 0)" fill="none"/>
        <rect id="yellow_gauje" x="4.4" y="65.5" width="35.334" height="17.5" rx="2.915" ry="2.363" transform="translate(1.96 0)" fill="#ffbf00" />
      </g>
    </g>
  </g>
</svg>
