<svg id="Groupe_23272" data-name="Groupe 23272" xmlns="http://www.w3.org/2000/svg" width="20.607" height="28.898" viewBox="0 0 20.607 28.898">
  <rect id="Rectangle_7635" data-name="Rectangle 7635" width="0.971" height="9.622" rx="0.486" transform="translate(5.828 10.939)" fill="#07ce15"/>
  <ellipse id="Ellipse_24" data-name="Ellipse 24" cx="3.885" cy="3.885" rx="3.885" ry="3.885" transform="translate(2.428 18.572)" fill="#07ce15"/>
  <g id="Groupe_14891" data-name="Groupe 14891" transform="translate(0 0)">
    <path id="Union_5" data-name="Union 5" d="M6.42,27.9A5.42,5.42,0,0,0,8.935,17.676l-.6-.314.068-.672a2.038,2.038,0,0,0,.01-.2V3A2,2,0,1,0,4.424,3V16.487a2.04,2.04,0,0,0,.01.2l.068.672-.6.314A5.421,5.421,0,0,0,6.42,27.9m0,1A6.421,6.421,0,0,1,3.439,16.791a3.029,3.029,0,0,1-.015-.3V3A3,3,0,1,1,9.415,3V16.487a3.03,3.03,0,0,1-.015.3A6.42,6.42,0,0,1,6.42,28.9Z" fill="#d2d2d2"/>
    <g id="Groupe_14890" data-name="Groupe 14890" transform="translate(11.453 1.809)">
      <g id="Groupe_14889" data-name="Groupe 14889" transform="translate(1.017 7.119)">
        <rect id="Rectangle_7698" data-name="Rectangle 7698" width="8.136" height="1.017" rx="0.509" fill="#d2d2d2"/>
        <rect id="Rectangle_7699" data-name="Rectangle 7699" width="4.068" height="1.017" rx="0.509" transform="translate(0 2.034)" fill="#d2d2d2"/>
      </g>
      <path id="Ellipse_645" data-name="Ellipse 645" d="M2.543,1A1.543,1.543,0,1,0,4.085,2.543,1.544,1.544,0,0,0,2.543,1m0-1A2.543,2.543,0,1,1,0,2.543,2.543,2.543,0,0,1,2.543,0Z" fill="#d2d2d2"/>
    </g>
  </g>
</svg>
