<svg id="Groupe_23271" data-name="Groupe 23271" xmlns="http://www.w3.org/2000/svg" width="21.949" height="30.781" viewBox="0 0 21.949 30.781">
  <rect id="Rectangle_7635" data-name="Rectangle 7635" width="1.035" height="17.751" rx="0.517" transform="translate(6.207 4.15)" fill="#b70b0b"/>
  <ellipse id="Ellipse_24" data-name="Ellipse 24" cx="4.138" cy="4.138" rx="4.138" ry="4.138" transform="translate(2.586 19.782)" fill="#b70b0b"/>
  <g id="Groupe_14891" data-name="Groupe 14891" transform="translate(0 0)">
    <path id="Union_5" data-name="Union 5" d="M6.837,29.781a5.839,5.839,0,0,0,2.71-11.01l-.6-.314.068-.672c.007-.074.011-.149.011-.224V3.191a2.191,2.191,0,1,0-4.382,0V17.561c0,.075,0,.15.011.224l.068.672-.6.314a5.839,5.839,0,0,0,2.709,11.01m0,1a6.839,6.839,0,0,1-3.174-12.9,3.232,3.232,0,0,1-.016-.324V3.191a3.191,3.191,0,1,1,6.382,0V17.561a3.235,3.235,0,0,1-.016.325,6.839,6.839,0,0,1-3.175,12.9Z" fill="#d2d2d2"/>
    <g id="Groupe_14890" data-name="Groupe 14890" transform="translate(12.199 1.926)">
      <g id="Groupe_14889" data-name="Groupe 14889" transform="translate(1.083 7.583)">
        <rect id="Rectangle_7698" data-name="Rectangle 7698" width="8.667" height="1.083" rx="0.542" fill="#d2d2d2"/>
        <rect id="Rectangle_7699" data-name="Rectangle 7699" width="4.333" height="1.083" rx="0.542" transform="translate(0 2.167)" fill="#d2d2d2"/>
      </g>
      <path id="Ellipse_645" data-name="Ellipse 645" d="M2.708,1A1.708,1.708,0,1,0,4.417,2.708,1.71,1.71,0,0,0,2.708,1m0-1A2.708,2.708,0,1,1,0,2.708,2.708,2.708,0,0,1,2.708,0Z" fill="#d2d2d2"/>
    </g>
  </g>
</svg>
