<svg xmlns="http://www.w3.org/2000/svg" width="33.791" height="33.791" viewBox="0 0 33.791 33.791">
  <g id="alarm_active" transform="translate(-1277.397 -244.322)">
    <path id="Tracé_4694" data-name="Tracé 4694" d="M16.9,0A16.9,16.9,0,1,1,0,16.9,16.9,16.9,0,0,1,16.9,0Z" transform="translate(1277.397 244.322)" fill="#FFB534"/>
    <path id="bell-solid" d="M8.914,0A1.269,1.269,0,0,0,7.643,1.271v.763A6.357,6.357,0,0,0,2.56,8.261v.747A7.644,7.644,0,0,1,.634,14.075L.34,14.4a1.271,1.271,0,0,0,.949,2.117h15.25a1.271,1.271,0,0,0,.949-2.117l-.294-.33a7.636,7.636,0,0,1-1.926-5.068V8.261a6.357,6.357,0,0,0-5.083-6.227V1.271A1.269,1.269,0,0,0,8.914,0Zm1.8,19.592a2.543,2.543,0,0,0,.743-1.8H6.372a2.544,2.544,0,0,0,4.341,1.8Z" transform="translate(1285.59 251.362)" fill="#fff"/>
  </g>
</svg>
